#!OML:ASF X:\für Bonn\!DataBase\2005_08_10_Bjorn_Final\c3d\bjorn.ASF
:FULLY-SPECIFIED
:DEGREES
400
root 11.9092 19.2621 -0.41238 125.782 -93.8347 -119.347
lowerback -5.56599 -0.641929 -2.17182
upperback -0.0840274 -0.696571 -1.07632
thorax 3.04715 -0.377046 0.0532992
lowerneck 1.02436 -1.16295 4.61136
upperneck 10.0733 -1.40544 -5.08428
head 3.0029 -0.766633 -2.51631
rclavicle -2.44676e-015 1.63128e-014
rhumerus -30.5294 -7.67411 -85.3779
rradius 37.5594
rwrist -7.04825
rhand -19.1075 12.0628
rfingers 7.12502
rthumb 7.20136 -17.7947
lclavicle -2.44676e-015 1.63128e-014
lhumerus -24.3342 -21.2221 95.3625
lradius 30.4452
lwrist -20.2588
lhand -23.1349 -14.7259
lfingers 7.12502
lthumb 3.31278 15.2281
rfemur -11.4036 -18.7735 14.3561
rtibia 28.6937
rfoot -10.5279 29.5375
rtoes 15.8626
lfemur -9.31789 7.8821 -14.2498
ltibia 30.9353
lfoot -13.3262 11.581
ltoes -15.8864
401
root 11.93 19.2628 -0.406377 125.782 -93.8786 -119.493
lowerback -5.11944 -0.596546 -2.11059
upperback 0.126909 -0.647145 -1.05688
thorax 3.0128 -0.351413 0.0464046
lowerneck 0.427783 -1.18044 4.66717
upperneck 9.68689 -1.42919 -5.22937
head 2.98036 -0.778444 -2.57811
rclavicle 4.02228e-015 2.48481e-017
rhumerus -30.06 -7.41517 -85.5693
rradius 37.0715
rwrist -6.7743
rhand -19.1658 11.9438
rfingers 7.12502
rthumb 7.14516 -17.9156
lclavicle 4.02228e-015 2.48481e-017
lhumerus -24.1642 -22.4845 95.6144
lradius 31.0015
lwrist -19.7
lhand -23.1367 -14.5188
lfingers 7.12502
lthumb 3.31111 15.4353
rfemur -11.279 -18.6062 14.2791
rtibia 28.671
rfoot -10.6481 29.3258
rtoes 15.5169
lfemur -9.72119 8.0751 -14.3503
ltibia 31.6773
lfoot -13.241 10.2422
ltoes -16.1926
402
root 11.9518 19.2607 -0.398596 125.74 -93.877 -119.604
lowerback -4.65958 -0.556877 -2.02279
upperback 0.356579 -0.607582 -0.998281
thorax 2.99033 -0.330732 0.0636975
lowerneck -0.203194 -1.17446 4.68027
upperneck 9.28836 -1.42245 -5.39658
head 2.9624 -0.778436 -2.63964
rclavicle 3.00041e-015 8.64713e-015
rhumerus -29.519 -7.02196 -85.7397
rradius 36.5101
rwrist -6.49697
rhand -19.1935 11.8716
rfingers 7.12502
rthumb 7.11834 -17.9887
lclavicle 3.00041e-015 8.64713e-015
lhumerus -23.9461 -23.5831 95.8324
lradius 31.5581
lwrist -19.1964
lhand -23.1506 -14.3363
lfingers 7.12502
lthumb 3.2977 15.618
rfemur -11.1573 -18.4523 14.2328
rtibia 28.6582
rfoot -10.7525 29.1629
rtoes 15.2723
lfemur -10.1313 8.24117 -14.4231
ltibia 32.4301
lfoot -13.2181 8.57875
ltoes -16.038
403
root 11.9743 19.2602 -0.388742 125.516 -93.8242 -119.565
lowerback -4.15661 -0.48528 -1.8637
upperback 0.597107 -0.529657 -0.953455
thorax 2.95306 -0.28984 0.0293462
lowerneck -0.836068 -1.1845 4.68634
upperneck 8.89649 -1.44415 -5.49951
head 2.94592 -0.79156 -2.67897
rclavicle 1.6027e-015 -7.55382e-015
rhumerus -28.9695 -6.65333 -85.9144
rradius 35.9295
rwrist -6.17898
rhand -19.2186 11.7583
rfingers 7.12502
rthumb 7.09413 -18.1028
lclavicle 1.6027e-015 -7.55382e-015
lhumerus -23.7346 -24.6442 96.0147
lradius 32.1449
lwrist -18.705
lhand -23.1452 -14.1323
lfingers 7.12502
lthumb 3.30287 15.8218
rfemur -11.0032 -18.2921 14.2055
rtibia 28.6381
rfoot -10.7998 29.0433
rtoes 15.0916
lfemur -10.5263 8.43011 -14.4634
ltibia 33.1708
lfoot -13.2087 6.75733
ltoes -15.8018
404
root 11.9966 19.2593 -0.37804 125.361 -93.7524 -119.575
lowerback -3.64778 -0.421065 -1.6876
upperback 0.810988 -0.462496 -0.899071
thorax 2.88508 -0.253943 -0.00604912
lowerneck -1.41349 -1.19062 4.7015
upperneck 8.49011 -1.46033 -5.62782
head 2.91493 -0.802945 -2.72749
rclavicle -6.74625e-015 3.97569e-015
rhumerus -28.453 -6.25875 -86.0769
rradius 35.3442
rwrist -5.84142
rhand -19.1839 11.6685
rfingers 7.12502
rthumb 7.12763 -18.1915
lclavicle -6.74625e-015 3.97569e-015
lhumerus -23.5628 -25.5794 96.1704
lradius 32.7561
lwrist -18.2698
lhand -23.088 -13.8862
lfingers 7.12502
lthumb 3.3581 16.0671
rfemur -10.8654 -18.1711 14.2046
rtibia 28.5999
rfoot -10.7687 28.9672
rtoes 15.0703
lfemur -10.9549 8.6089 -14.4976
ltibia 33.8951
lfoot -13.1823 4.97921
ltoes -16.2599
405
root 12.0183 19.261 -0.3661 124.637 -93.6814 -119.032
lowerback -3.103 -0.353145 -1.53349
upperback 1.01936 -0.389462 -0.840931
thorax 2.79135 -0.215583 -0.0254923
lowerneck -1.93447 -1.19628 4.64879
upperneck 8.05727 -1.47667 -5.72085
head 2.8647 -0.815543 -2.74989
rclavicle 3.15571e-015 -3.18055e-015
rhumerus -27.9428 -5.79149 -86.2276
rradius 34.7208
rwrist -5.52017
rhand -19.1137 11.5929
rfingers 7.12502
rthumb 7.19543 -18.2648
lclavicle 3.15571e-015 -3.18055e-015
lhumerus -23.4237 -26.3174 96.2942
lradius 33.4093
lwrist -17.9539
lhand -22.9652 -13.6674
lfingers 7.12502
lthumb 3.47672 16.284
rfemur -10.6918 -18.0702 14.1669
rtibia 28.5338
rfoot -10.7847 28.9179
rtoes 14.8057
lfemur -11.3681 8.76651 -14.5692
ltibia 34.5714
lfoot -13.1463 3.28047
ltoes -16.9091
